# xmcd CD database file
#
# Track frame offsets:
#	150
#	21957
#	40095
#	57950
#	79899
#	99617
#	116434
#	137174
#	151147
#	171121
#	189078
#	206819
#	225793
#
# Disc length: 3270 seconds
#
# Revision: 0
# Processed by: cddbd v1.5.1PL2 Copyright (c) Steve Scherf et al.
# Submitted via: CDex 1.51
#
DISCID=9d0cc40d
DTITLE=Les Yeux Noirs - Tchorba
DYEAR=2004
DGENRE=Jazz
TTITLE0=Tchorba
TTITLE1=Désirs dérisoires
TTITLE2=La belle amour
TTITLE3=Rêve
TTITLE4=Zam'hora pe opt
TTITLE5=Yankele
TTITLE6=Doïna si joc de marian
TTITLE7=Le voyage
TTITLE8=Viens
TTITLE9=Trado trado
TTITLE10=O'djila
TTITLE11=Vos iz gevein
TTITLE12=Hora de mina
EXTD=YEAR: 2004
EXTT0=
EXTT1=
EXTT2=
EXTT3=
EXTT4=
EXTT5=
EXTT6=
EXTT7=
EXTT8=
EXTT9=
EXTT10=
EXTT11=
EXTT12=
PLAYORDER=
